<svg width="40" height="40" viewBox="0 0 40 40" fill="none" xmlns="http://www.w3.org/2000/svg"><g clip-path="url(#clip0_1497_2852)"><path d="M19.9994 0C18.7263 0 17.5054 0.505713 16.6052 1.40589C15.7051 2.30606 15.1994 3.52696 15.1994 4.8C15.1994 6.07304 15.7051 7.29394 16.6052 8.19411C17.5054 9.09429 18.7263 9.6 19.9994 9.6C21.2724 9.6 22.4933 9.09429 23.3935 8.19411C24.2936 7.29394 24.7994 6.07304 24.7994 4.8C24.7994 3.52696 24.2936 2.30606 23.3935 1.40589C22.4933 0.505713 21.2724 0 19.9994 0ZM5.59935 12.8C5.38733 12.797 5.17683 12.8362 4.98008 12.9152C4.78333 12.9943 4.60426 13.1117 4.45327 13.2605C4.30228 13.4094 4.18238 13.5868 4.10054 13.7824C4.01871 13.978 3.97656 14.188 3.97656 14.4C3.97656 14.612 4.01871 14.822 4.10054 15.0176C4.18238 15.2132 4.30228 15.3906 4.45327 15.5395C4.60426 15.6883 4.78333 15.8057 4.98008 15.8848C5.17683 15.9638 5.38733 16.003 5.59935 16L15.1994 16.6V38.3469C15.1994 39.2589 15.9405 40 16.8525 40C17.7229 40 18.4449 39.3251 18.5025 38.4562L19.2025 27.9438C19.2313 27.5261 19.5786 27.2 19.9994 27.2C20.1498 27.2 21.5994 27.1844 21.5994 27.1844L24.6181 29.6812L20.8962 32.1625L20.8837 32.1688C20.5042 32.3586 20.2156 32.6914 20.0815 33.094C19.9473 33.4966 19.9786 33.936 20.1683 34.3155C20.3581 34.6951 20.6909 34.9837 21.0934 35.1179C21.496 35.2521 21.9354 35.221 22.315 35.0312L28.715 31.8313C28.9275 31.7249 29.1137 31.5726 29.26 31.3854C29.4063 31.1982 29.509 30.9807 29.5608 30.7488C29.6126 30.5169 29.612 30.2763 29.5592 30.0447C29.5065 29.813 29.4027 29.596 29.2556 29.4094L24.7994 22.7781V16.6L34.3994 16C34.6114 16.003 34.8219 15.9638 35.0186 15.8848C35.2154 15.8057 35.3944 15.6883 35.5454 15.5395C35.6964 15.3906 35.8163 15.2132 35.8982 15.0176C35.98 14.822 36.0221 14.612 36.0221 14.4C36.0221 14.188 35.98 13.978 35.8982 13.7824C35.8163 13.5868 35.6964 13.4094 35.5454 13.2605C35.3944 13.1117 35.2154 12.9943 35.0186 12.9152C34.8219 12.8362 34.6114 12.797 34.3994 12.8H5.59935Z" fill="black"/></g><defs><clipPath id="clip0_1497_2852"><rect width="40" height="40" fill="white"/></clipPath></defs></svg>