<svg width="128" height="128" viewBox="0 0 128 128" fill="none" xmlns="http://www.w3.org/2000/svg"><rect width="128" height="128" rx="64" fill="#E9F6FA"/><path d="M76.9983 86C76.1316 86 75.2899 85.9333 74.4733 85.8C73.6566 85.6667 72.8649 85.4667 72.0983 85.2L45.3983 75.45C45.0316 75.2833 44.7566 75.025 44.5733 74.675C44.3899 74.325 44.3649 73.95 44.4983 73.55C44.6649 73.15 44.9316 72.8583 45.2983 72.675C45.6649 72.4917 46.0483 72.4833 46.4483 72.65L58.7983 77.15L62.2483 68.25L55.0983 60.8C54.1983 59.8667 53.8399 58.7583 54.0233 57.475C54.2066 56.1917 54.8649 55.2167 55.9983 54.55L62.9483 50.55C63.5149 50.2167 64.0899 50.025 64.6733 49.975C65.2566 49.925 65.8316 50.0167 66.3983 50.25C66.9649 50.45 67.4566 50.7667 67.8733 51.2C68.2899 51.6333 68.5983 52.15 68.7983 52.75L69.4483 54.9C69.8816 56.3333 70.5899 57.6 71.5733 58.7C72.5566 59.8 73.7316 60.6333 75.0983 61.2L75.6983 59.4C75.8316 59 76.0733 58.7083 76.4233 58.525C76.7733 58.3417 77.1483 58.3167 77.5483 58.45C77.9483 58.5833 78.2483 58.8333 78.4483 59.2C78.6483 59.5667 78.6816 59.95 78.5483 60.35L76.7483 65.8C74.2816 65.4 72.0983 64.4333 70.1983 62.9C68.2983 61.3667 66.8983 59.4667 65.9983 57.2L60.9483 60.1L66.1983 66.1C66.4649 66.3667 66.6233 66.6833 66.6733 67.05C66.7233 67.4167 66.6816 67.7833 66.5483 68.15L62.5483 78.5L68.7483 80.75L72.9483 67.9C73.4149 68.0667 73.8816 68.2167 74.3483 68.35C74.8149 68.4833 75.2983 68.6 75.7983 68.7L71.5483 81.8L73.0983 82.35C73.6983 82.55 74.3233 82.7083 74.9733 82.825C75.6233 82.9417 76.2983 83 76.9983 83C77.5649 83 78.1149 82.9667 78.6483 82.9C79.1816 82.8333 79.7149 82.7167 80.2483 82.55C80.6483 82.4167 81.0399 82.4333 81.4233 82.6C81.8066 82.7667 82.0816 83.0333 82.2483 83.4C82.4149 83.8 82.3983 84.1917 82.1983 84.575C81.9983 84.9583 81.6983 85.2167 81.2983 85.35C80.6316 85.55 79.9399 85.7083 79.2233 85.825C78.5066 85.9417 77.7649 86 76.9983 86ZM72.9983 53C71.8983 53 70.9566 52.6083 70.1733 51.825C69.3899 51.0417 68.9983 50.1 68.9983 49C68.9983 47.9 69.3899 46.9583 70.1733 46.175C70.9566 45.3917 71.8983 45 72.9983 45C74.0983 45 75.0399 45.3917 75.8233 46.175C76.6066 46.9583 76.9983 47.9 76.9983 49C76.9983 50.1 76.6066 51.0417 75.8233 51.825C75.0399 52.6083 74.0983 53 72.9983 53Z" fill="#18264D"/></svg>