<svg width="128" height="128" viewBox="0 0 128 128" fill="none" xmlns="http://www.w3.org/2000/svg"><rect width="128" height="128" rx="64" fill="#EBEFFA"/><path d="M63.9992 44.9023C63.6295 44.9022 63.2585 44.9646 62.9055 45.093L54.9055 48.0023C53.645 48.4607 52.7992 49.6718 52.7992 51.0117V60.2055C52.7992 60.5548 52.8667 60.8903 52.9742 61.2117L45.3055 64.0023C44.045 64.4607 43.1992 65.6718 43.1992 67.0117V76.2055C43.1992 77.4558 43.9343 78.6007 45.0742 79.118L53.0711 82.7555C53.9127 83.1395 54.8857 83.1395 55.7273 82.7555L63.7242 79.118C63.8251 79.0722 63.9049 78.9982 63.9992 78.943C64.0936 78.9982 64.1733 79.0722 64.2742 79.118L72.2711 82.7555C73.1127 83.1395 74.0857 83.1395 74.9273 82.7555L82.9242 79.118C84.0642 78.6007 84.7992 77.4558 84.7992 76.2055V67.0117C84.7992 65.6718 83.9501 64.4606 82.693 64.0023L75.0242 61.2117C75.1318 60.8903 75.1992 60.5548 75.1992 60.2055V51.0117C75.1992 49.6718 74.3501 48.4606 73.093 48.0023L65.093 45.093H65.0898C64.7373 44.9653 64.3689 44.9025 63.9992 44.9023ZM63.9992 48.1023L71.1211 50.6898L63.9992 53.2805L56.8773 50.6898L63.9992 48.1023ZM55.9992 53.7742L62.3992 56.1023V63.118L55.9992 60.2055V53.7742ZM54.3992 64.1023L61.5211 66.6898L54.3992 69.2805L47.2773 66.6898L54.3992 64.1023ZM73.5992 64.1023L80.7211 66.6898L73.5992 69.2805L66.4773 66.6898L73.5992 64.1023ZM46.3992 69.7742L52.7992 72.1023V79.118L46.3992 76.2055V69.7742ZM65.5992 69.7742L71.9992 72.1023V79.118L65.5992 76.2055V69.7742Z" fill="black"/></svg>