<svg width="128" height="128" viewBox="0 0 128 128" fill="none" xmlns="http://www.w3.org/2000/svg"><rect width="128" height="128" rx="64" fill="#E9F6FA"/><path d="M63.9961 57.8834C62.2678 57.8834 60.7973 57.277 59.5846 56.0644C58.372 54.8514 57.7656 53.3809 57.7656 51.6529C57.7656 49.9245 58.372 48.454 59.5846 47.2414C60.7973 46.0284 62.2678 45.4219 63.9961 45.4219C65.7245 45.4219 67.195 46.0284 68.4076 47.2414C69.6203 48.454 70.2266 49.9245 70.2266 51.6529C70.2266 53.3809 69.6203 54.8514 68.4076 56.0644C67.195 57.277 65.7245 57.8834 63.9961 57.8834ZM63.9961 54.8834C64.8935 54.8834 65.6563 54.5694 66.2846 53.9414C66.913 53.313 67.2271 52.5502 67.2271 51.6529C67.2271 50.7552 66.913 49.9924 66.2846 49.3644C65.6563 48.736 64.8935 48.4219 63.9961 48.4219C63.0988 48.4219 62.336 48.736 61.7076 49.3644C61.0793 49.9924 60.7651 50.7552 60.7651 51.6529C60.7651 52.5502 61.0793 53.313 61.7076 53.9414C62.336 54.5694 63.0988 54.8834 63.9961 54.8834ZM61.8386 80.1104L52.5346 70.8064C51.945 70.2167 51.5026 69.5469 51.2076 68.7969C50.913 68.0469 50.7656 67.2274 50.7656 66.3384C50.7656 64.5897 51.3663 63.1152 52.5676 61.9149C53.7693 60.7145 55.2455 60.1144 56.9961 60.1144C57.8531 60.1144 58.6436 60.2752 59.3676 60.5969C60.0916 60.9189 60.755 61.381 61.3576 61.9834L63.9961 64.6219L66.6346 61.9834C67.2243 61.3937 67.8858 60.9347 68.6191 60.6064C69.3525 60.2784 70.1476 60.1144 71.0046 60.1144C72.7476 60.1144 74.2205 60.7145 75.4231 61.9149C76.6255 63.1152 77.2266 64.5897 77.2266 66.3384C77.2266 67.2274 77.0793 68.0469 76.7846 68.7969C76.4896 69.5469 76.0473 70.2167 75.4576 70.8064L66.1536 80.1104C65.8436 80.4207 65.5026 80.6502 65.1306 80.7989C64.759 80.9475 64.3808 81.0219 63.9961 81.0219C63.6115 81.0219 63.2333 80.9475 62.8616 80.7989C62.4896 80.6502 62.1486 80.4207 61.8386 80.1104ZM63.9961 77.9914L73.2886 68.6989C73.6143 68.3732 73.8521 68.009 74.0021 67.6064C74.1521 67.204 74.2271 66.7867 74.2271 66.3544C74.2271 65.4904 73.9181 64.7344 73.3001 64.0864C72.6821 63.4384 71.9135 63.1144 70.9941 63.1144C70.5698 63.1144 70.1863 63.1782 69.8436 63.3059C69.5006 63.4339 69.1668 63.6622 68.8421 63.9909L63.9961 68.8374L59.1886 64.0294C58.967 63.8007 58.6808 63.591 58.3301 63.4004C57.9791 63.2097 57.5373 63.1144 57.0046 63.1144C56.081 63.1144 55.3101 63.4367 54.6921 64.0814C54.0741 64.7264 53.7651 65.4787 53.7651 66.3384C53.7651 66.7684 53.8453 67.1777 54.0056 67.5664C54.166 67.9547 54.3986 68.3117 54.7036 68.6374L63.9961 77.9914Z" fill="#18264D"/></svg>